<?xml version="1.0" standalone="no"?>
<!DOCTYPE svg PUBLIC "-//W3C//DTD SVG 20010904//EN"
 "http://www.w3.org/TR/2001/REC-SVG-20010904/DTD/svg10.dtd">
<svg version="1.0" xmlns="http://www.w3.org/2000/svg"
 width="1024.000000pt" height="1024.000000pt" viewBox="0 0 1024.000000 1024.000000"
 preserveAspectRatio="xMidYMid meet">

<g transform="translate(0.000000,1024.000000) scale(0.100000,-0.100000)"
fill="#000000" stroke="none">
<path d="M3509 8603 c-15 -2 -51 -18 -80 -36 -71 -43 -111 -107 -117 -188 -7
-90 13 -145 72 -204 57 -56 111 -78 183 -74 l44 3 105 -178 c57 -98 104 -180
104 -181 0 -2 -22 -8 -49 -14 -239 -51 -445 -216 -556 -445 -82 -168 -78 -130
-82 -944 -3 -622 -2 -736 12 -814 30 -174 114 -327 252 -459 106 -101 198
-155 366 -212 16 -6 17 -31 17 -345 l0 -339 23 -21 c53 -50 51 -52 447 343
l366 365 900 0 c568 -1 917 3 945 9 243 55 445 214 555 436 83 169 79 120 79
1000 l0 780 -23 75 c-90 285 -310 498 -587 567 -38 10 -71 18 -73 19 -2 1 44
80 101 175 l104 174 71 6 c118 11 197 71 228 175 18 60 18 88 -2 153 -55 187
-311 238 -439 88 -83 -97 -82 -238 2 -329 14 -14 24 -31 22 -36 -2 -5 -56 -96
-119 -201 l-115 -190 -1151 -1 -1152 0 -116 195 c-64 107 -116 197 -116 200 0
3 9 16 21 28 111 118 76 318 -70 391 -47 24 -125 37 -172 29z m1042 -1852 c23
-18 23 -23 24 -195 0 -234 12 -221 -207 -220 -211 1 -198 -14 -198 220 0 227
-12 214 201 214 139 0 159 -2 180 -19z m1496 -3 c22 -21 23 -27 23 -194 0
-230 14 -215 -200 -215 -219 1 -205 -14 -205 217 0 227 -13 214 203 214 146 0
157 -1 179 -22z m-537 -891 c32 -16 37 -50 11 -76 -21 -21 -30 -21 -430 -21
-398 0 -409 1 -435 21 -31 25 -33 42 -6 69 19 19 33 20 428 20 307 0 413 -3
432 -13z"/>
<path d="M3070 3383 l0 -543 90 0 90 0 0 543 0 543 -90 0 -90 -1 0 -542z"/>
<path d="M1179 3543 c76 -169 171 -380 211 -468 39 -88 79 -177 87 -197 l15
-38 97 0 96 0 127 293 c70 160 170 388 222 505 l94 212 -102 0 -102 0 -106
-252 c-59 -139 -133 -317 -165 -395 -32 -78 -60 -142 -63 -142 -3 0 -80 176
-172 392 l-167 392 -104 3 -105 3 137 -308z"/>
<path d="M5740 3346 l0 -506 258 0 c141 0 286 5 322 10 130 21 270 111 338
217 93 146 103 353 26 511 -36 75 -121 163 -195 202 -111 59 -136 62 -456 67
l-293 5 0 -506z m478 334 c208 -20 322 -139 322 -339 0 -91 -17 -148 -65 -213
-72 -98 -164 -128 -397 -128 l-158 0 0 338 c0 186 3 342 7 345 9 10 181 8 291
-3z"/>
<path d="M7820 3705 l0 -84 -67 -3 -68 -3 -3 -77 -3 -78 71 0 70 0 0 -217 c0
-120 5 -234 10 -254 16 -56 51 -101 100 -129 39 -22 58 -25 135 -25 90 0 178
24 189 50 2 6 -7 36 -19 65 -20 47 -27 54 -47 52 -13 -2 -49 -4 -80 -5 -48 -2
-61 2 -80 21 -22 22 -23 29 -26 232 l-3 210 100 0 101 0 0 80 0 80 -106 0
-105 0 3 85 3 85 -87 0 -88 0 0 -85z"/>
<path d="M2341 3614 c-69 -18 -171 -73 -171 -91 0 -11 44 -108 55 -121 1 -1
28 11 61 28 174 89 371 41 377 -91 l2 -34 -65 -2 c-36 -1 -110 -4 -165 -6
-113 -4 -177 -25 -233 -80 -41 -40 -67 -120 -57 -180 22 -130 111 -197 273
-205 109 -5 163 11 223 65 l38 34 3 -43 3 -43 83 -3 83 -3 -3 278 c-3 241 -6
283 -21 318 -45 100 -99 147 -206 179 -68 20 -206 20 -280 0z m327 -494 c-3
-49 -10 -65 -33 -90 -58 -61 -201 -79 -263 -33 -36 27 -51 85 -31 121 27 49
70 62 208 62 l123 0 -4 -60z"/>
<path d="M4660 3615 c-72 -23 -152 -76 -190 -128 -58 -76 -75 -135 -75 -257 0
-100 2 -109 34 -174 77 -157 220 -235 413 -224 92 6 179 38 243 91 l29 25 -41
54 -41 55 -73 -36 c-63 -31 -82 -36 -144 -36 -56 0 -81 5 -119 25 -53 28 -102
88 -112 138 l-6 32 291 0 291 0 0 63 c0 161 -80 293 -212 352 -77 34 -215 44
-288 20z m185 -146 c22 -6 55 -22 74 -36 31 -24 70 -91 71 -120 0 -10 -48 -13
-205 -13 -226 0 -219 -2 -191 63 38 89 145 135 251 106z"/>
<path d="M7055 3616 c-50 -13 -170 -69 -178 -83 -6 -11 51 -136 60 -131 138
70 207 86 298 68 80 -16 118 -51 135 -127 6 -24 4 -33 -7 -37 -8 -3 -79 -6
-158 -6 -120 0 -153 -3 -198 -20 -164 -62 -209 -250 -88 -370 56 -55 124 -80
220 -80 89 0 157 22 208 65 l42 36 3 -43 3 -43 78 -3 78 -3 -3 278 c-3 268 -4
280 -27 331 -29 64 -103 134 -169 157 -62 22 -230 29 -297 11z m323 -491 c-8
-95 -66 -143 -181 -152 -51 -4 -71 -1 -104 15 -22 12 -43 28 -47 37 -11 30 -6
80 10 104 28 40 69 50 203 51 l123 0 -4 -55z"/>
<path d="M8543 3615 c-47 -13 -124 -48 -161 -73 -10 -7 -6 -23 17 -75 l30 -67
61 31 c125 63 265 62 328 -4 34 -35 59 -115 39 -122 -7 -2 -84 -6 -172 -8
-136 -3 -167 -7 -205 -24 -53 -25 -93 -61 -117 -106 -25 -46 -23 -150 5 -203
74 -143 347 -183 469 -68 42 40 43 40 36 14 -3 -11 -2 -31 1 -45 6 -24 9 -25
90 -25 l84 0 -5 258 c-2 141 -9 275 -15 297 -25 97 -77 158 -173 201 -49 23
-76 28 -160 31 -67 2 -117 -2 -152 -12z m323 -491 c-8 -68 -27 -99 -80 -127
-58 -30 -173 -31 -212 -1 -64 47 -61 133 6 166 28 14 61 18 164 18 l129 0 -7
-56z"/>
<path d="M3472 3338 c3 -272 4 -285 27 -335 26 -59 90 -123 148 -149 27 -13
66 -18 138 -18 110 -1 163 15 218 68 35 33 37 33 37 -3 0 -57 5 -61 91 -61
l79 0 0 390 0 390 -90 0 -90 0 0 -245 c0 -262 -2 -277 -52 -321 -47 -43 -87
-56 -159 -52 -78 4 -111 23 -140 78 -17 31 -19 61 -19 287 l0 253 -96 0 -96 0
4 -282z"/>
<path d="M6996 2346 c-75 -28 -136 -116 -136 -195 0 -88 68 -179 149 -201 73
-19 162 1 204 48 17 19 17 20 -10 40 l-27 20 -28 -21 c-39 -29 -114 -28 -156
1 -57 41 -68 147 -20 199 50 55 111 62 171 20 l29 -20 25 26 c30 29 25 40 -28
68 -53 27 -124 33 -173 15z"/>
<path d="M7463 2349 c-47 -14 -83 -62 -83 -111 0 -56 37 -90 127 -117 75 -22
97 -39 91 -68 -8 -45 -99 -51 -164 -12 l-32 19 -16 -25 c-23 -34 -21 -38 27
-65 77 -44 217 -27 247 29 5 11 10 40 10 65 0 63 -27 89 -125 123 -76 27 -80
30 -80 58 0 26 5 30 37 38 29 7 46 4 82 -12 l46 -20 16 24 c23 35 13 50 -42
69 -52 18 -92 19 -141 5z"/>
<path d="M2707 2313 c-8 -21 -47 -111 -85 -200 l-69 -163 41 0 c39 0 42 2 59
45 l19 45 90 0 89 0 20 -45 c19 -43 22 -45 60 -45 49 0 53 -20 -50 215 l-79
180 -39 3 c-37 3 -40 1 -56 -35z m90 -128 c17 -41 28 -77 25 -80 -8 -7 -122
-6 -122 2 0 14 55 153 61 153 4 0 20 -34 36 -75z"/>
<path d="M3130 2150 l0 -200 39 0 39 0 -1 200 -2 200 -37 0 -38 0 0 -200z"/>
<path d="M3801 2328 c-14 -38 -152 -361 -157 -370 -3 -4 13 -8 36 -8 38 0 42
3 62 45 l22 46 91 -3 90 -3 15 -42 c14 -42 16 -43 57 -43 l43 0 -23 53 c-13
28 -52 118 -87 200 l-63 147 -39 0 c-31 0 -40 -5 -47 -22z m83 -147 c14 -36
26 -67 26 -70 0 -7 -120 -8 -120 -1 -1 17 56 148 61 142 4 -4 19 -36 33 -71z"/>
<path d="M4220 2150 l0 -200 35 0 35 0 0 137 c0 161 -12 162 125 -15 79 -102
95 -117 123 -120 l32 -3 0 200 0 201 -41 0 -40 0 3 -120 c2 -76 -1 -120 -7
-119 -10 0 -177 209 -183 229 -2 6 -21 10 -43 10 l-39 0 0 -200z"/>
<path d="M4897 2343 c-3 -5 -25 -57 -50 -118 -25 -60 -61 -147 -81 -192 l-35
-83 40 0 c38 0 41 2 59 45 l19 45 90 0 89 0 18 -45 c16 -43 18 -45 59 -45 l42
0 -85 200 -86 200 -37 0 c-21 0 -40 -3 -42 -7z m77 -166 c14 -37 26 -69 26
-72 0 -8 -120 -6 -120 3 -1 18 55 151 61 144 3 -4 18 -37 33 -75z"/>
<path d="M5300 2150 l0 -201 131 3 132 3 2 33 3 32 -94 0 -94 0 0 165 0 165
-40 0 -40 0 0 -200z"/>
<path d="M5648 2318 c11 -18 47 -78 81 -133 59 -96 61 -101 61 -167 l0 -68 35
0 35 0 0 73 0 72 80 125 80 125 -31 3 c-17 2 -36 1 -43 -1 -6 -3 -36 -44 -65
-92 -62 -101 -51 -103 -124 22 -42 73 -42 73 -85 73 l-44 0 20 -32z"/>
<path d="M6120 2315 l0 -35 60 0 60 0 1 -112 c1 -62 2 -137 3 -165 l0 -53 38
0 38 0 0 165 0 165 60 0 60 0 0 35 0 35 -160 0 -160 0 0 -35z"/>
<path d="M6610 2150 l0 -200 40 0 40 0 0 200 0 200 -40 0 -40 0 0 -200z"/>
</g>
</svg>
